<svg xmlns:dc="http://purl.org/dc/elements/1.1/" xmlns:cc="http://creativecommons.org/ns#" xmlns:rdf="http://www.w3.org/1999/02/22-rdf-syntax-ns#" xmlns:svg="http://www.w3.org/2000/svg" xmlns="http://www.w3.org/2000/svg" xmlns:sodipodi="http://sodipodi.sourceforge.net/DTD/sodipodi-0.dtd" xmlns:inkscape="http://www.inkscape.org/namespaces/inkscape" version="1.1" x="0px" y="0px" viewBox="0 0 100 125"><g transform="translate(0,-952.36218)"><path style="text-indent:0;text-transform:none;direction:ltr;block-progression:tb;baseline-shift:baseline;color:#000000;enable-background:accumulate;" d="m 87.55945,1004.5031 c -1.0332,0.013 -2.135,0.2289 -3.2187,0.75 l -18.7187,9 c -0.8891,-2.0491 -3.0296,-3.4524 -5.4376,-3.375 l -10.7812,0.3125 c -2.634,0 -4.6123,-0.6168 -7.125,-1.3437 -2.5208,-0.7293 -5.5054,-1.5313 -9.6562,-1.5313 -3.4168,0 -8.0316,1.0421 -11.7813,2.3125 l 0,-2.3437 c 0,-0.2618 -0.056,-0.5394 -0.1563,-0.7813 -0.1001,-0.2418 -0.2524,-0.4711 -0.4374,-0.6562 -0.1852,-0.1851 -0.3832,-0.3061 -0.625,-0.4063 -0.2418,-0.1001 -0.5196,-0.1562 -0.7813,-0.1562 l -10.8437003,0 c -0.2619,0 -0.5081,0.056 -0.75,0.1562 -0.2419,0.1002 -0.4712,0.2212 -0.6563,0.4063 -0.1851,0.1851 -0.3373,0.4144 -0.4375,0.6562 -0.1002,0.2419 -0.1562,0.5195 -0.1562,0.7813 l 0,8.1562 0,21.5938 c 0,0.2618 0.056,0.5082 0.1562,0.75 0.1002,0.2418 0.2524,0.4712 0.4375,0.6562 0.1851,0.1851 0.4144,0.3374 0.6563,0.4375 0.2418,0.1002 0.4881,0.1563 0.75,0.1563 l 10.8437003,0 c 0.2617,0 0.5395,-0.056 0.7813,-0.1563 0.2418,-0.1001 0.4398,-0.2524 0.625,-0.4375 0.185,-0.1851 0.3373,-0.4144 0.4374,-0.6562 0.1003,-0.2418 0.1563,-0.4883 0.1563,-0.75 l 0,-2.5625 c 13.1674,-2.3383 21.0211,1.6347 32.875,1.625 2.4539,-5e-4 5.0009,-1.1748 8.2187,-2.8438 3.2184,-1.6693 6.9007,-3.9391 10.625,-6.3437 7.4487,-4.8092 15.0921,-10.2841 19.062596,-12.9688 1.3622,-0.9232 2.1777,-2.3756 2.3437,-3.8125 0.1659,-1.4368 -0.231,-2.8363 -1.0313,-4 -1.1004,-1.6 -3.101196,-2.6537 -5.374996,-2.625 z m 0.2813,3.875 c 0.9005,-0.013 1.4356,0.4832 1.8125,1.0313 0.287196,0.4176 0.387196,0.9053 0.343796,1.2812 -0.043,0.3755 -0.173796,0.6312 -0.624996,0.9375 -4.0901,2.7657 -11.6384,8.2048 -18.9688,12.9375 -3.6656,2.3667 -7.2573,4.5566 -10.2812,6.125 -3.0241,1.5685 -5.6506,2.4063 -6.4063,2.4063 -10.7246,0.01 -19.1408,-3.9549 -32.875,-1.6875 l 0,-1.7188 c 0,-0.2638 -0.057,-0.5365 -0.1563,-0.7812 -0.099,-0.2447 -0.2207,-0.4685 -0.4062,-0.6563 -0.1854,-0.1877 -0.4128,-0.3357 -0.6562,-0.4375 -0.2436,-0.1017 -0.5175,-0.1562 -0.7813,-0.1562 -0.2639,0 -0.5378,0.055 -0.7813,0.1562 -0.2433,0.1018 -0.4395,0.2498 -0.625,0.4375 -0.1855,0.1878 -0.3388,0.4116 -0.4374,0.6563 -0.099,0.2447 -0.1596,0.5174 -0.1563,0.7812 l 0,6.3438 -1,0 0,-25.75 1,0 0,6.3125 c 0,0.2638 0.058,0.5365 0.1563,0.7812 0.099,0.2448 0.252,0.4685 0.4374,0.6563 0.1855,0.1877 0.3816,0.3357 0.625,0.4375 0.2435,0.1017 0.5174,0.1562 0.7813,0.1562 0.2638,0 0.5377,-0.054 0.7813,-0.1562 0.2433,-0.1018 0.4708,-0.2498 0.6562,-0.4375 0.1855,-0.1878 0.3076,-0.4115 0.4062,-0.6563 0.099,-0.2447 0.1596,-0.5174 0.1563,-0.7812 l 0,-1.7188 c 3.5308,-1.3028 8.9469,-2.5625 11.7813,-2.5625 3.6592,0 6.1058,0.6643 8.5624,1.375 2.4568,0.7107 4.9569,1.5 8.25,1.5 0.02,10e-5 0.043,5e-4 0.063,0 l 10.8124,-0.3125 c 1.0026,-0.034 1.75,0.7582 1.75,1.5 0,0.7416 -0.7178,1.4795 -1.9062,1.5313 l -20.5312,0.8437 c -0.2633,0.01 -0.5417,0.078 -0.7813,0.1875 -0.2397,0.1093 -0.4459,0.2757 -0.625,0.4688 -0.1792,0.1931 -0.3152,0.4091 -0.4063,0.6562 -0.091,0.2472 -0.1361,0.5181 -0.125,0.7813 0.011,0.2631 0.076,0.5426 0.1876,0.7812 0.1115,0.2386 0.2739,0.4478 0.4687,0.625 0.1948,0.1773 0.4082,0.3177 0.6563,0.4063 0.2481,0.089 0.5182,0.1074 0.7812,0.094 l 20.5625,-0.875 c 2.1534,-0.093 4.1628,-1.2661 5.125,-3.0938 l 20.625,-9.9062 c 0.7017,-0.3375 1.2783,-0.4935 1.75,-0.5 z" fill="#000000" fill-opacity="1" fill-rule="evenodd" stroke="none" marker="none" visibility="visible" display="inline" overflow="visible"/><path style="text-indent:0;text-transform:none;direction:ltr;block-progression:tb;baseline-shift:baseline;color:#000000;enable-background:accumulate;" d="m 49.96575,964.69063 c -0.3161,0.008 -0.6287,0.0984 -0.9063,0.25 -0.2773,0.15161 -0.5411,0.36339 -0.7187,0.625 -2.0789,3.06268 -5.6479,7.7311 -8.7187,12.5 -3.0708,4.7689 -5.8126,9.5027 -5.8126,13.84375 0,8.91982 7.2764,16.18752 16.1876,16.18752 8.9112,0 16.1874,-7.2677 16.1874,-16.18752 0,-4.34105 -2.7416,-9.07485 -5.8124,-13.84375 -3.0708,-4.7689 -6.6398,-9.43732 -8.7188,-12.5 -0.1872,-0.27577 -0.4535,-0.504 -0.75,-0.65625 -0.2965,-0.15226 -0.6043,-0.22728 -0.9375,-0.21875 z m -2.7187,17.6875 5.5312,0 c 0.2617,4e-5 0.5082,0.0561 0.75,0.15625 0.2418,0.10018 0.4711,0.25241 0.6562,0.4375 0.1851,0.18508 0.3372,0.41443 0.4376,0.65625 0.1001,0.24181 0.1562,0.48825 0.1562,0.75 l 0,2.28125 2.25,0 c 0.2617,4e-5 0.5082,0.0248 0.75,0.125 0.2418,0.10018 0.4711,0.25241 0.6562,0.4375 0.1851,0.18508 0.3374,0.41443 0.4376,0.65625 0.1002,0.24181 0.1562,0.5195 0.1562,0.78125 l 0,5.5 c 0,0.26175 -0.056,0.53943 -0.1562,0.78125 -0.1002,0.24182 -0.2525,0.43992 -0.4376,0.625 -0.1851,0.18509 -0.4144,0.33731 -0.6562,0.4375 -0.2418,0.10018 -0.4883,0.15625 -0.75,0.15625 l -2.25,0 0,2.28121 c 0,0.2618 -0.056,0.5082 -0.1562,0.75 -0.1004,0.2419 -0.2525,0.4712 -0.4376,0.6563 -0.1851,0.18511 -0.4144,0.33731 -0.6562,0.43751 -0.2418,0.1002 -0.4883,0.125 -0.75,0.125 l -5.5312,0 c -0.2618,-10e-5 -0.5395,-0.025 -0.7813,-0.125 -0.2418,-0.1002 -0.4399,-0.2524 -0.625,-0.43751 -0.1851,-0.1851 -0.3373,-0.4144 -0.4375,-0.6563 -0.1002,-0.2418 -0.1562,-0.4882 -0.1562,-0.75 l 0,-2.28121 -2.25,0 c -0.2618,-4e-5 -0.5395,-0.0561 -0.7813,-0.15625 -0.2418,-0.10019 -0.4711,-0.25241 -0.6563,-0.4375 -0.185,-0.18508 -0.3373,-0.38318 -0.4374,-0.625 -0.1004,-0.24182 -0.125,-0.5195 -0.125,-0.78125 l 0,-5.5 c 0,-0.26175 0.025,-0.53944 0.125,-0.78125 0.1001,-0.24182 0.2524,-0.47117 0.4374,-0.65625 0.1852,-0.18509 0.4145,-0.33732 0.6563,-0.4375 0.2418,-0.10018 0.5195,-0.125 0.7813,-0.125 l 2.25,0 0,-2.28125 c 0,-0.26175 0.056,-0.50819 0.1562,-0.75 0.1002,-0.24182 0.2524,-0.47117 0.4375,-0.65625 0.1851,-0.18509 0.3832,-0.33732 0.625,-0.4375 0.2418,-0.10018 0.5195,-0.15625 0.7813,-0.15625 z" fill="#000000" fill-opacity="1" fill-rule="evenodd" stroke="none" marker="none" visibility="visible" display="inline" overflow="visible"/></g><text x="0" y="115" fill="#000000" font-size="5px" font-weight="bold" font-family="'Helvetica Neue', Helvetica, Arial-Unicode, Arial, Sans-serif">Created by alvianwijaya</text><text x="0" y="120" fill="#000000" font-size="5px" font-weight="bold" font-family="'Helvetica Neue', Helvetica, Arial-Unicode, Arial, Sans-serif">from the Noun Project</text></svg>